<svg id="Layer_1" data-name="Layer 1" xmlns="http://www.w3.org/2000/svg" viewBox="0 0 189.97 59.41"><title>codeinwp-logo-white</title><g id="w"><path id="_Compound_Path_" data-name=" Compound Path " d="M151.86,30.59a.57.57,0,0,0-.62-.49h-4.29c-.33,0-.49.13-.49.49v1.7a.43.43,0,0,0,.36.49h1.83l3.57,13.06a.57.57,0,0,0,.62.46h2.95a.57.57,0,0,0,.62-.46l3.24-11.59,3.11,11.56a.57.57,0,0,0,.62.49h2.95a.57.57,0,0,0,.62-.46L171.47,31a.64.64,0,0,0-.65-.88h-4.21c-.33,0-.49.13-.49.49v1.7a.43.43,0,0,0,.36.49h1.7l-2.91,9.56-3.34-11.79a.55.55,0,0,0-.62-.46h-2.62a.57.57,0,0,0-.62.46l-3.24,11.72Z" transform="translate(-0.04 0.02)" style="fill:#fff"/></g><g id="p"><path id="_Compound_Path_2" data-name=" Compound Path 2" d="M174.94,51.25H173.2c-.33,0-.49.13-.49.49v1.6a.43.43,0,0,0,.36.49h9c.33,0,.49-.13.49-.49V51.72c0-.33-.13-.49-.49-.49h-3.46V45.32a6.54,6.54,0,0,0,4.26,1.38c3.83,0,7.14-2.49,7.14-9.13,0-5.24-2.49-7.82-6.42-7.82a5.8,5.8,0,0,0-5.14,2.82l-.33-2c-.07-.33-.16-.49-.49-.49h-4.45c-.36,0-.49.13-.49.49v1.7a.43.43,0,0,0,.36.49H175Zm3.67-14.9a3.64,3.64,0,0,1,3.67-3.61h.19c3.4,0,3.83,2.65,3.83,5.57,0,4.35-1.64,5.66-4,5.66a5.66,5.66,0,0,1-3.73-1.38Z" transform="translate(-0.04 0.02)" style="fill:#fff"/></g><g id="i"><path id="_Compound_Path_3" data-name=" Compound Path 3" d="M123.81,43.72h2.06c.33,0,.49.13.49.49v1.6a.43.43,0,0,1-.36.49h-7.92c-.33,0-.49-.13-.49-.49v-1.6a.43.43,0,0,1,.36-.49h2.19V32.78h-1.77c-.33,0-.49-.13-.49-.49v-1.7a.43.43,0,0,1,.36-.49h5.07c.36,0,.49.16.49.49Zm-4.58-18.2a2.2,2.2,0,0,0,2.07,2.32h.25a2.34,2.34,0,1,0-2.32-2.36S119.23,25.51,119.23,25.52Z" transform="translate(-0.04 0.02)" style="fill:#fff"/></g><g id="n"><path id="_Compound_Path_4" data-name=" Compound Path 4" d="M127.51,32.32c0,.36.13.46.49.46h1.77V43.72H128c-.33,0-.49.13-.49.49v1.6a.43.43,0,0,0,.36.49h7.56c.33,0,.49-.13.49-.49v-1.6c0-.33-.13-.49-.49-.49h-2V36.19A3.55,3.55,0,0,1,137.13,33c2.59,0,2.82,1.64,2.82,4v6.74h-1.57c-.33,0-.49.13-.49.49v1.6a.43.43,0,0,0,.36.49h7.27c.33,0,.49-.13.49-.49v-1.6a.43.43,0,0,0-.36-.49h-2V35.31c0-3.7-1.77-5.57-5.07-5.57a6,6,0,0,0-5.24,2.75l-.29-1.9c-.07-.33-.2-.49-.52-.49H128c-.36,0-.49.16-.49.49Z" transform="translate(-0.04 0.02)" style="fill:#fff"/></g><g id="c"><path id="_Compound_Path_5" data-name=" Compound Path 5" d="M54.11,38c0-3.67,1.15-5.5,3.8-5.5,2,0,2.82,1.15,2.91,2.88,0,.43.23.49.56.49h2c.33,0,.56,0,.56-.43,0-3-1.57-5.7-5.76-5.7-5.4,0-7.76,3.83-7.76,8.55,0,4.94,2.23,8.41,7.76,8.41a9.84,9.84,0,0,0,5-1.21.48.48,0,0,0,.3-.61l0-.08-.59-1.44a.47.47,0,0,0-.57-.34l-.12,0a7.71,7.71,0,0,1-3.44.88C55.23,43.94,54.11,41.36,54.11,38Z" transform="translate(-0.04 0.02)" style="fill:#fff"/></g><g id="o"><path id="_Compound_Path_6" data-name=" Compound Path 6" d="M65.7,38.44c0,5.57,2.78,8.25,7.24,8.25s7.89-2.82,7.89-8.94c0-7.24-4.81-8-7.37-8C70.32,29.72,65.7,31.54,65.7,38.44ZM73.23,44C70,44,69.4,40.64,69.4,37.72c0-3.18,1-5.3,3.77-5.3S77,34.55,77,38.21,75.91,44,73.23,44Z" transform="translate(-0.04 0.02)" style="fill:#fff"/></g><g id="d"><path id="_Compound_Path_7" data-name=" Compound Path 7" d="M98.18,43.72V22.37c0-.36-.16-.49-.49-.49H92.78c-.36,0-.49.13-.49.49v1.74a.43.43,0,0,0,.36.49h1.87v7a5.12,5.12,0,0,0-4.19-1.83c-4,0-7.2,2.62-7.2,8.94,0,5.43,2.49,8,6.68,8a5.8,5.8,0,0,0,5.34-2.82l.26,1.93a.43.43,0,0,0,.49.49h3.7c.33,0,.49-.13.49-.49v-1.6a.43.43,0,0,0-.36-.49H98.18Zm-3.67-3.57a3.72,3.72,0,0,1-3.74,3.7h-.09c-3.44,0-3.86-2.82-3.86-5.73,0-4.13,1.77-5.5,4.06-5.5a4.57,4.57,0,0,1,3.63,1.77Z" transform="translate(-0.04 0.02)" style="fill:#fff"/></g><g id="e"><path id="_Compound_Path_8" data-name=" Compound Path 8" d="M109.73,46.72a12,12,0,0,0,5.4-1.18c.29-.16.43-.33.29-.65l-.62-1.51c-.13-.33-.33-.43-.65-.26a8.43,8.43,0,0,1-3.7.85c-3.54,0-4.42-2.16-4.62-4.94h9.63c.49,0,.56-.13.59-.52s0-.82,0-1.11c0-3.54-1.38-7.63-6.38-7.63s-7.5,4.13-7.5,8.45C102.2,43.16,104.3,46.72,109.73,46.72Zm-3.9-10.12c.07-1.74.75-4.09,3.6-4.09,2.68,0,3.24,2.13,3.21,4.09Z" transform="translate(-0.04 0.02)" style="fill:#fff"/></g><g id="cog1"><path id="_Compound_Path_9" data-name=" Compound Path 9" d="M40.87,34.65H37a16.43,16.43,0,0,0-2-4.58l3-3A.75.75,0,0,0,38,26l-4.17-4.29a.75.75,0,0,0-1.06,0l-3,3a16.4,16.4,0,0,0-5-2V18.52a.75.75,0,0,0-.75-.75H18a.75.75,0,0,0-.75.75v4.2a16.4,16.4,0,0,0-4.84,2l-2.93-3a.75.75,0,0,0-1.06,0L4.16,26a.75.75,0,0,0,0,1.06l2.9,2.9a16.4,16.4,0,0,0-2,4.7H.79a.75.75,0,0,0-.75.75v6a.75.75,0,0,0,.75.75h4.1A16.39,16.39,0,0,0,7,47.45L4.39,50.09a.75.75,0,0,0,0,1.06l4.22,4.27a.75.75,0,0,0,1.06,0l2.64-2.64a16.4,16.4,0,0,0,5,2v3.81a.75.75,0,0,0,.75.75h6a.75.75,0,0,0,.75-.75V54.83a16.4,16.4,0,0,0,5.07-2.13l2.71,2.71a.75.75,0,0,0,1.06,0l4.24-4.24a.75.75,0,0,0,0-1.06l-2.75-2.75a16.4,16.4,0,0,0,2.07-5.22h3.72a.75.75,0,0,0,.75-.75v-6a.75.75,0,0,0-.76-.74ZM21,50.6A11.82,11.82,0,1,1,32.82,38.78,11.82,11.82,0,0,1,21,50.6Z" transform="translate(-0.04 0.02)" style="fill:#fff"/></g><g id="cog2"><path id="_Compound_Path_10" data-name=" Compound Path 10" d="M46.87,12.36H45a7.91,7.91,0,0,0-1-2.21L45.5,8.68a.36.36,0,0,0,0-.51h0l-2-2a.36.36,0,0,0-.51,0h0L41.47,7.59a7.91,7.91,0,0,0-2.39-1v-2a.36.36,0,0,0-.36-.36h-2.9a.36.36,0,0,0-.36.36v2a7.91,7.91,0,0,0-2.33,1L31.7,6.16a.36.36,0,0,0-.51,0h0l-2,2a.36.36,0,0,0,0,.51h0l1.4,1.4a7.92,7.92,0,0,0-1,2.27H27.52a.36.36,0,0,0-.36.36v2.9a.36.36,0,0,0,.36.36h2a7.91,7.91,0,0,0,1,2.57l-1.28,1.28a.36.36,0,0,0,0,.51h0l2,2a.36.36,0,0,0,.51,0h0l1.28-1.28a7.91,7.91,0,0,0,2.39,1v1.85a.36.36,0,0,0,.36.36h2.9a.36.36,0,0,0,.36-.36V22.09a7.92,7.92,0,0,0,2.45-1l1.31,1.31a.36.36,0,0,0,.51,0h0l2-2a.36.36,0,0,0,0-.51h0L44,18.55A7.91,7.91,0,0,0,45,16h1.8a.36.36,0,0,0,.36-.36V12.72A.36.36,0,0,0,46.87,12.36Zm-9.6,5.45a3.46,3.46,0,1,1,3.46-3.46,3.46,3.46,0,0,1-3.46,3.46h0Z" transform="translate(-0.04 0.02)" style="fill:#fff"/></g><g id="cog3"><path id="_Compound_Path_11" data-name=" Compound Path 11" d="M28.78,4.72h-1.1a4.6,4.6,0,0,0-.55-1.28L28,2.59a.21.21,0,0,0,0-.3h0L26.79,1.1a.21.21,0,0,0-.3,0h0l-.85.85a4.6,4.6,0,0,0-1.39-.58V.19A.21.21,0,0,0,24,0H22.35a.21.21,0,0,0-.21.21h0V1.37a4.6,4.6,0,0,0-1.36.56l-.83-.83a.21.21,0,0,0-.3,0h0L18.46,2.29a.21.21,0,0,0,0,.3h0l.82.82a4.6,4.6,0,0,0-.57,1.32h-1.2a.21.21,0,0,0-.21.21h0V6.63a.21.21,0,0,0,.21.21h1.15a4.6,4.6,0,0,0,.6,1.5l-.74.74a.21.21,0,0,0,0,.3h0l1.19,1.19a.21.21,0,0,0,.3,0h0l.74-.74a4.6,4.6,0,0,0,1.39.58v1.07a.21.21,0,0,0,.21.21H24a.21.21,0,0,0,.21-.21h0V10.41a4.6,4.6,0,0,0,1.42-.6l.76.76a.21.21,0,0,0,.3,0h0l1.19-1.19a.21.21,0,0,0,0-.3h0l-.78-.78a4.6,4.6,0,0,0,.58-1.46h1a.21.21,0,0,0,.21-.21h0V4.94A.21.21,0,0,0,28.78,4.72ZM23.2,7.87a2,2,0,1,1,2-2,2,2,0,0,1-2,2h0Z" transform="translate(-0.04 0.02)" style="fill:#fff"/></g><g id="_" data-name=" "><path id="_Compound_Path_12" data-name=" Compound Path 12" d="M13.24,39a1.2,1.2,0,0,0-.13.51,1.16,1.16,0,0,0,.1.52.74.74,0,0,0,.35.37l3.27,1.72a.94.94,0,0,0,.75.08,1,1,0,0,0,.58-.48.92.92,0,0,0,.07-.75,1,1,0,0,0-.49-.58l-1.62-.85,1.62-.87a1,1,0,0,0,.49-.58.92.92,0,0,0-.07-.75,1,1,0,0,0-.58-.48.94.94,0,0,0-.75.07l-3.22,1.73A.74.74,0,0,0,13.24,39Z" transform="translate(-0.04 0.02)" style="fill:#fff"/></g><g id="_2" data-name=" 2"><path id="_Compound_Path_13" data-name=" Compound Path 13" d="M21.61,34.54a1,1,0,0,0-.5.6l-2.4,7.56a1,1,0,0,0,1.93.62L23,35.75a1,1,0,0,0-1.41-1.2h0Z" transform="translate(-0.04 0.02)" style="fill:#fff"/></g><g id="_3" data-name=" 3"><path id="_Compound_Path_14" data-name=" Compound Path 14" d="M28.53,38.67l-3.27-1.74a.94.94,0,0,0-.75-.07,1,1,0,0,0-.58.48.92.92,0,0,0-.07.75,1,1,0,0,0,.49.58l1.62.87-1.62.85a1,1,0,0,0-.49.58.92.92,0,0,0,.07.75,1,1,0,0,0,.58.48.94.94,0,0,0,.75-.08l3.27-1.72a.74.74,0,0,0,.35-.37,1.16,1.16,0,0,0,.1-.52,1.2,1.2,0,0,0-.13-.51.74.74,0,0,0-.33-.34Z" transform="translate(-0.04 0.02)" style="fill:#fff"/></g></svg>