<svg height="200" width="501" xmlns="http://www.w3.org/2000/svg"><g fill="none" fill-rule="evenodd"><path d="M5 5h491v190H5z" fill="#fff" stroke="#b8d5e6" stroke-width="10"/><path d="M142.161 100.434c0 6.214-1.89 12.146-5.142 17.284l12.935 12.958a50.11 50.11 0 009.984-29.995c0-11.352-3.782-21.61-10.25-29.978l-12.687 12.694a31.006 31.006 0 015.143 17.019z" fill="#b8d5e6"/><path d="M110.336 132.3c-17.547-.035-31.771-14.282-31.807-31.866.036-17.602 14.26-31.85 31.807-31.885 6.468 0 12.405 1.907 17.265 5.138l12.67-12.712A49.758 49.758 0 00110.336 51C83.106 51 61 73.14 61 100.434c0 27.276 22.106 49.433 49.336 49.433a48.305 48.305 0 0029.934-10.275l-12.934-12.958c-4.595 3.778-10.514 5.667-17 5.667z" fill="#3faff0"/><g fill="#546070"><path d="M224.946 55v30.605h13.442c7.077 0 11.29-3.107 11.29-8.308 0-4.198-2.645-7.083-7.17-7.738 3.676-.745 5.78-3.325 5.78-6.909 0-4.808-3.806-7.65-10.127-7.65zm3.583 3.365h9.453c4.213 0 6.678 1.749 6.678 4.852 0 3.195-2.465 4.987-6.678 4.987h-9.453zm0 13.16h9.453c5.11 0 8.068 1.967 8.068 5.292 0 3.496-2.958 5.463-8.068 5.463h-9.453zm36.807-9.614c-6.86 0-11.702 4.854-11.702 11.847 0 6.99 4.797 11.847 11.747 11.847 3.943 0 7.263-1.425 9.503-3.92l-1.927-2.048c-1.837 1.914-4.393 2.94-7.308 2.94-4.572 0-7.934-2.896-8.564-7.483h19.279c.358-7.974-3.407-13.227-11.028-13.183zm-8.25 10.333c.54-4.454 3.767-7.349 8.25-7.349 4.618 0 7.666 2.85 7.89 7.349z" fill-rule="nonzero"/><path d="M290.84 61.912c-6.689 0-11.485 4.853-11.485 11.846 0 6.99 4.753 11.847 11.485 11.847 4.006 0 7.218-1.514 9.289-4.054l-1.983-2.136c-1.628 1.958-4.138 3.028-7.175 3.028-4.796 0-8.228-3.565-8.228-8.685 0-5.123 3.432-8.64 8.228-8.64 2.818 0 5.152 1.025 6.912 2.717l1.891-2.45c-2.11-2.226-5.192-3.518-8.934-3.473z"/><path d="M314.968 61.91c-6.934 0-11.871 4.81-11.871 11.803 0 7.035 4.937 11.892 11.87 11.892 6.938 0 11.872-4.857 11.872-11.892 0-6.993-4.934-11.802-11.871-11.802zm0 3.162c4.893 0 8.404 3.562 8.404 8.686 0 5.165-3.511 8.73-8.404 8.73-4.89 0-8.401-3.565-8.401-8.73 0-5.124 3.511-8.686 8.4-8.686z" fill-rule="nonzero"/><path d="M362.673 61.91c-4.474.045-7.751 2.011-9.213 6.17-.972-3.891-3.984-6.17-8.37-6.17-4.208.045-7.353 1.788-8.903 5.453v-5.318h-3.413v23.56h3.413v-11.58c0-5.05 2.88-8.54 7.663-8.673 4.072 0 6.465 2.46 6.465 6.663v13.59h3.499v-11.58c0-5.05 2.79-8.54 7.621-8.673 4.029 0 6.466 2.46 6.466 6.663v13.59h3.454v-14.53c0-5.678-3.233-9.164-8.682-9.164z"/><path d="M388 61.911c-6.858 0-11.699 4.854-11.699 11.847 0 6.99 4.796 11.847 11.747 11.847 3.943 0 7.26-1.425 9.503-3.92l-1.927-2.048c-1.84 1.914-4.394 2.94-7.308 2.94-4.573 0-7.938-2.896-8.564-7.483h19.278c.358-7.974-3.406-13.227-11.03-13.183zm-8.248 10.333c.537-4.454 3.768-7.349 8.248-7.349 4.62 0 7.669 2.85 7.893 7.349zm51.559 13.184h3.356l-.044-15.443c-.044-5.013-3.224-8.074-8.966-8.074-3.976 0-6.494 1.154-9.497 3.15l1.457 2.53c2.43-1.686 4.817-2.663 7.376-2.663 4.108 0 6.23 2.04 6.23 5.459v1.372h-7.644c-5.474.044-8.697 2.619-8.697 6.702 0 4.038 3.091 7.144 7.904 7.144 3.708 0 6.668-1.243 8.525-3.773zm-7.864-2.84c-3.267 0-5.342-1.686-5.342-4.26 0-2.575 2.03-3.773 5.918-3.773h7.244v2.795c-.885 3.239-3.888 5.238-7.82 5.238z" fill-rule="nonzero"/></g><g fill="#b8d5e6"><path d="M236.987 99.426c-8.862 0-14.716 4.31-14.716 11.088 0 13.029 19.518 9.143 19.518 15.657 0 2.103-1.845 3.205-4.802 3.205-3.85 0-9.55-2.207-13.346-5.517L220 131.058c4.379 3.572 10.71 5.884 16.882 5.884 8.23 0 14.774-3.89 14.774-11.243 0-13.294-19.522-9.668-19.522-16.028 0-1.786 1.635-2.679 4.064-2.679 3.005 0 7.912 1.577 11.817 3.835l3.536-7.303c-3.8-2.47-9.235-4.098-14.564-4.098z"/><path d="M274.053 108.312c-3.552 0-6.427 1.46-8.41 4.013v-3.7h-9.04v38.19h9.04v-13.858c1.983 2.606 4.962 4.063 8.618 4.063 7.891 0 13.008-5.677 13.008-14.222 0-8.702-5.274-14.486-13.216-14.486zm-2.195 21.57c-3.655 0-6.215-2.97-6.215-7.345 0-4.274 2.56-7.295 6.215-7.295 3.763 0 6.323 3.021 6.323 7.295 0 4.324-2.56 7.345-6.323 7.345zm33.737-21.57c-9.214 0-15.358 5.665-15.358 14.29s6.144 14.34 15.358 14.34c9.164 0 15.308-5.715 15.308-14.34s-6.144-14.29-15.308-14.29zm0 7.118c3.697 0 6.248 2.963 6.248 7.275 0 4.366-2.551 7.275-6.248 7.275-3.747 0-6.298-2.91-6.298-7.275 0-4.312 2.551-7.275 6.298-7.275z" fill-rule="nonzero"/><path d="M344.263 108.312c-4.175.053-7.407 1.728-9.39 5.025v-4.606h-9.024v28.211h9.023v-14.918c.365-3.35 2.453-5.703 5.738-5.703 3.024 0 4.955 2.041 4.955 5.337v15.284h8.973v-17.795c0-6.596-4.069-10.835-10.275-10.835zm27.204 0c-6.59 0-11.549 3.102-11.549 8.836-.05 9.768 14.66 7.65 14.66 11.733 0 1.29-1.318 1.91-3.11 1.91-3.166 0-6.856-1.24-10.072-3.461l-2.901 5.684c3.429 2.582 8.014 3.928 12.76 3.928 6.854 0 11.97-3.152 11.97-8.89.051-9.714-14.923-7.855-14.923-11.68 0-1.289 1.16-1.909 2.797-1.909 2.37 0 5.536.981 8.961 2.791l3.112-5.79a23.603 23.603 0 00-11.705-3.152z"/><path d="M401.555 108.312c-9.217 0-15.361 5.665-15.361 14.29s6.144 14.34 15.361 14.34c9.164 0 15.305-5.715 15.305-14.34s-6.141-14.29-15.305-14.29zm0 7.118c3.697 0 6.248 2.963 6.248 7.275 0 4.366-2.55 7.275-6.248 7.275-3.75 0-6.301-2.91-6.301-7.275 0-4.312 2.551-7.275 6.301-7.275z" fill-rule="nonzero"/><path d="M431.152 108.731h-9.346v28.211h9.346v-14.498c.485-3.978 4.05-6.439 9.45-5.969v-8.163c-4.157.053-7.45 1.886-9.45 5.183z"/></g></g></svg>