<svg id="rollbar-logo-color-horiz" xmlns="http://www.w3.org/2000/svg" viewBox="0 0 665.93 117.72"><defs><style>.cls-1{fill:#3a4757;}.cls-2{fill:#f7941d;}.cls-2,.cls-3,.cls-4{fill-rule:evenodd;}.cls-3{fill:#bfd730;}.cls-4{fill:#00bad9;}</style></defs><title>rollbar-logo-color-horiz</title><g id="logotype"><path class="cls-1" d="M249.69,9.76Q260,18.17,260,33.86a28.78,28.78,0,0,1-5.66,17.95A28.41,28.41,0,0,1,239,62v.32a21.17,21.17,0,0,1,9.7,6.87q3.56,4.61,7.6,15.44l11.48,31.86H241.92l-9.22-27.33q-3.24-9.38-7.52-13t-12.69-3.64H199.4v44H175.62V1.36H218Q239.34,1.36,249.69,9.76ZM199.4,53.59h16.82q19.89,0,19.89-17,0-16-21.18-16H199.4Z" transform="translate(-2.42 -1.36)"/><path class="cls-1" d="M333.21,37.09a36.54,36.54,0,0,1,14.63,15.2Q353,62.16,353,75.42t-5.17,23.12a36.53,36.53,0,0,1-14.63,15.2q-9.46,5.34-22.23,5.34t-22.24-5.34a36.52,36.52,0,0,1-14.63-15.2q-5.18-9.86-5.17-23.12t5.17-23.12a36.53,36.53,0,0,1,14.63-15.2q9.46-5.34,22.24-5.34T333.21,37.09ZM297.63,56.34q-4.93,7.12-4.93,19.08t4.93,19.08a16.06,16.06,0,0,0,26.68,0q4.93-7.11,4.93-19.08t-4.93-19.08a16.06,16.06,0,0,0-26.68,0Z" transform="translate(-2.42 -1.36)"/><path class="cls-1" d="M364.34,116.49V1.36H387V116.49Z" transform="translate(-2.42 -1.36)"/><path class="cls-1" d="M402.66,116.49V1.36H425.3V116.49Z" transform="translate(-2.42 -1.36)"/><path class="cls-1" d="M463.78,44.21a25.4,25.4,0,0,1,9.95-8.81,29.11,29.11,0,0,1,13.34-3.15,30.54,30.54,0,0,1,17.87,5.34,33.88,33.88,0,0,1,11.8,15.12,58.14,58.14,0,0,1,4.12,22.72,57.16,57.16,0,0,1-4.2,22.72,34.16,34.16,0,0,1-12,15.12,30.91,30.91,0,0,1-18,5.34,28.21,28.21,0,0,1-13.58-3.4,25.82,25.82,0,0,1-10-9.54h-.32v10.83h-22V1.36h22.64V44.21ZM467,56.42q-4.69,6.88-4.69,19t4.69,19q4.69,6.87,12.45,6.87,8.08,0,12.94-7t4.85-18.84q0-11.8-4.85-18.84t-12.94-7Q471.71,49.54,467,56.42Z" transform="translate(-2.42 -1.36)"/><path class="cls-1" d="M593.8,39.92q8.89,8.17,8.89,24.34V94q0,13.91,2.26,22.48H584.58a47.18,47.18,0,0,1-1.13-11h-.32q-9.06,12.94-26.68,12.94-12.78,0-20.38-7a23.28,23.28,0,0,1-7.6-17.87q0-10.51,7.36-17t24.5-9.22q10.35-1.61,20.54-2.26V62.16q0-7.44-3.56-11t-9.86-3.56q-6.31,0-9.78,3.31a13.08,13.08,0,0,0-3.8,9.14h-22a27.88,27.88,0,0,1,9.7-20.38q9.06-7.92,25.87-7.92Q584.9,31.76,593.8,39.92ZM564.37,80.59q-7.12,1.29-10.19,3.88t-3.07,7.44a9.61,9.61,0,0,0,3.15,7.52q3.15,2.83,9,2.83a21.7,21.7,0,0,0,7.2-1.21,14.92,14.92,0,0,0,5.74-3.48,14.06,14.06,0,0,0,3.72-6.23,36.56,36.56,0,0,0,1-9.46V78.81Q571.16,79.46,564.37,80.59Z" transform="translate(-2.42 -1.36)"/><path class="cls-1" d="M668.34,34V53.59a40.91,40.91,0,0,0-7.12-.81q-10.35,0-15.85,6.39t-5.5,18.52v38.81H617.24V34.34H638.1V46h.32A27,27,0,0,1,648,36.2a25.68,25.68,0,0,1,12.86-3.15A27,27,0,0,1,668.34,34Z" transform="translate(-2.42 -1.36)"/></g><g id="icon"><path class="cls-1" d="M145.48,116.33V15.85C145.22,9.44,145-.31,130.72,5.52,106.81,14.27,82.77,22.69,59.09,32,41.14,39.05,21.48,46.79,11.36,84.56c-2.65,9.9-6.29,21.88-8.94,31.78H25.66c2.14-8,4.82-18.09,7-26.09,7.25-27,21.48-32.64,34.47-37.75,18.64-7.33,37.54-14,56.35-20.9v84.75Z" transform="translate(-2.42 -1.36)"/><path class="cls-2" d="M58.46,62.37A36.58,36.58,0,0,0,51.83,67c-7,6.25-10.82,15.17-13.21,24.07L32,115.53H58.46Z" transform="translate(-2.42 -1.36)"/><path class="cls-3" d="M87.24,50.68q-9,3.34-17.88,6.83c-1.59.62-3.16,1.24-4.69,1.89v56.13H87.24Z" transform="translate(-2.42 -1.36)"/><path class="cls-4" d="M117.23,115.53V39.7c-7.93,2.88-15.87,5.76-23.79,8.68v67.15Z" transform="translate(-2.42 -1.36)"/></g></svg>